<?xml version="1.0" standalone="no"?>
<!DOCTYPE svg PUBLIC "-//W3C//DTD SVG 20010904//EN" "http://www.w3.org/TR/2001/REC-SVG-20010904/DTD/svg10.dtd">
<svg version="1.0" xmlns="http://www.w3.org/2000/svg"
    width="840.000000pt" height="826.000000pt" viewBox="0 0 840.000000 826.000000"
    preserveAspectRatio="xMidYMid meet">

    <g transform="translate(0.000000,826.000000) scale(0.100000,-0.100000)"
        fill="#000000" stroke="none">
        <path
            d="M4739 7849 c-188 -17 -460 -105 -503 -162 -20 -28 -21 -39 -19 -260
3 -270 22 -508 58 -699 13 -74 27 -143 31 -151 5 -15 -3 -16 -75 -10 -82 6
-111 -2 -111 -33 0 -26 30 -41 94 -48 89 -9 96 -13 96 -50 0 -30 -4 -34 -41
-45 -47 -14 -129 -85 -129 -112 0 -13 15 -23 55 -35 63 -20 96 -16 318 38
l128 31 25 -24 c15 -13 64 -70 111 -126 83 -102 107 -123 138 -123 26 0 65 46
65 78 0 36 -48 113 -113 179 l-50 52 29 11 c105 38 143 59 186 100 56 54 60
79 19 121 -24 23 -38 29 -73 29 -24 -1 -60 -7 -82 -15 l-38 -13 8 131 c5 73 9
207 9 300 l0 167 120 0 c132 -1 238 -16 330 -49 85 -30 130 -28 166 8 35 35
35 44 8 164 -29 131 -29 203 -1 248 23 39 29 97 12 130 -19 35 -173 99 -330
137 -71 17 -300 45 -335 41 -5 -1 -53 -6 -106 -10z m375 -244 c43 -9 99 -24
123 -33 l44 -17 4 -83 c2 -45 7 -92 10 -102 8 -24 5 -24 -100 -5 -44 8 -169
18 -277 22 -221 7 -236 3 -264 -62 -12 -30 -12 -43 2 -107 20 -92 22 -262 4
-441 -12 -126 -15 -138 -34 -141 -12 -2 -52 -11 -89 -19 -50 -11 -70 -12 -73
-3 -10 29 -24 409 -24 657 l0 276 88 26 c81 25 149 40 232 51 67 8 275 -3 354
-19z" />
        <path
            d="M5365 6809 c-125 -12 -354 -48 -387 -61 -23 -8 -28 -17 -28 -43 0
-18 6 -37 13 -44 9 -7 103 -12 268 -14 347 -6 518 -37 691 -129 160 -83 266
-256 256 -414 l-3 -49 -57 3 c-58 3 -87 -6 -123 -38 -33 -30 -581 -168 -890
-224 -398 -72 -743 -98 -1005 -77 -155 13 -282 33 -670 105 -135 24 -310 52
-390 62 -80 9 -146 18 -148 19 -2 2 -13 36 -23 77 -14 51 -22 119 -26 224 -5
143 -4 152 13 157 30 9 316 64 449 86 66 11 197 27 290 36 306 29 449 52 508
81 36 19 39 76 4 98 -65 43 -399 59 -642 31 -122 -14 -691 -123 -762 -146 -58
-18 -73 -50 -73 -148 0 -196 40 -415 99 -546 24 -52 35 -66 58 -71 15 -4 50
-27 77 -51 27 -24 75 -60 107 -80 l59 -36 0 -81 c0 -48 11 -130 26 -201 13
-66 54 -259 89 -430 66 -322 103 -490 155 -709 17 -71 29 -131 27 -133 -2 -2
-39 6 -83 16 -144 36 -245 46 -444 46 -198 0 -293 -10 -469 -47 -375 -79 -735
-263 -967 -492 -209 -208 -313 -431 -314 -680 0 -70 -2 -77 -17 -71 -246 103
-398 67 -481 -113 -38 -82 -85 -275 -76 -315 5 -23 -3 -37 -54 -92 -201 -224
-275 -528 -176 -730 80 -162 258 -299 524 -400 50 -19 105 -35 122 -35 43 0
98 57 98 101 0 50 27 155 56 227 l26 63 53 -58 53 -58 -58 -58 c-77 -76 -105
-134 -104 -212 1 -108 72 -207 227 -316 203 -143 563 -292 928 -385 349 -88
855 -94 1269 -14 357 69 645 197 870 386 168 141 303 350 359 554 32 113 29
154 -14 197 l-36 36 40 34 c24 20 54 62 73 101 30 61 33 74 32 154 l-1 88 26
-8 c59 -16 194 -6 274 21 92 32 90 32 83 10 -26 -83 -80 -563 -92 -808 -7
-154 0 -188 49 -220 25 -16 420 -81 707 -116 246 -30 676 -37 850 -15 249 33
411 79 581 167 547 281 749 850 603 1699 -33 191 -114 498 -158 601 -5 11 14
32 71 78 128 102 160 115 282 116 100 1 105 2 127 29 31 36 30 63 -5 140 -62
137 -166 272 -252 327 -47 31 -49 34 -49 79 0 67 -34 191 -72 263 -26 49 -42
67 -78 85 -40 21 -55 23 -136 19 -109 -5 -160 -26 -328 -136 -60 -39 -112 -71
-116 -71 -3 0 -35 37 -70 81 -35 45 -74 88 -87 96 -32 22 -87 9 -112 -25 l-19
-27 -22 27 c-33 43 -211 157 -298 191 -64 26 -91 31 -162 31 -73 1 -93 -3
-141 -27 -31 -15 -76 -48 -99 -73 -23 -25 -44 -43 -47 -40 -7 7 16 448 33 621
8 83 31 280 51 440 39 317 38 314 106 315 41 0 77 28 77 58 0 10 16 32 35 49
42 38 47 79 12 111 -20 19 -24 33 -25 99 -5 176 -56 298 -177 419 -64 65 -97
89 -166 123 -180 87 -386 115 -654 90z m551 -1252 c-42 -332 -53 -769 -27
-1007 25 -217 46 -321 71 -340 19 -14 21 -22 15 -63 -5 -34 -12 -47 -24 -47
-9 0 -26 -3 -38 -6 -20 -6 -24 2 -53 97 -59 194 -92 294 -112 341 -28 66 -52
74 -166 54 -110 -19 -201 -51 -354 -123 -144 -68 -144 -69 -128 -214 10 -98
43 -279 56 -313 8 -20 0 -20 -31 0 -47 30 -72 19 -385 -171 -80 -48 -153 -97
-162 -109 -10 -11 -18 -37 -18 -57 0 -38 3 -43 126 -191 33 -40 111 -144 173
-231 177 -249 281 -368 400 -459 l34 -26 -43 -173 c-23 -96 -45 -175 -49 -177
-4 -1 -56 -31 -115 -67 -118 -70 -187 -91 -271 -82 -64 6 -164 42 -188 66 -19
19 -18 21 68 122 111 132 305 422 305 456 0 91 -223 261 -405 309 -33 8 -126
20 -206 26 l-145 11 -24 61 c-126 331 -355 575 -684 732 -84 40 -105 53 -89
58 40 13 42 40 17 251 -13 110 -42 324 -64 475 -22 151 -46 367 -55 480 -8
113 -18 223 -22 244 l-6 39 49 -7 c290 -42 532 -51 1009 -37 421 13 582 23
810 52 245 32 528 95 690 156 40 15 51 16 53 6 2 -8 -3 -69 -12 -136z m575
-1120 c62 -30 199 -126 199 -138 0 -5 -17 -17 -38 -28 -58 -29 -68 -57 -54
-144 7 -39 21 -132 33 -204 l21 -133 -59 -54 c-66 -61 -155 -181 -204 -276
l-34 -65 -5 333 -5 334 -28 24 c-26 22 -37 24 -133 24 -83 0 -104 3 -104 14 0
26 48 155 73 198 29 50 79 103 122 130 44 28 143 21 216 -15z m-871 -46 c20
-14 35 -51 72 -172 26 -85 45 -156 42 -158 -2 -3 -32 -16 -66 -30 -97 -41 -98
-45 -65 -248 15 -92 34 -220 42 -283 19 -160 57 -611 52 -617 -5 -5 -184 307
-280 487 -41 78 -53 109 -46 121 6 12 -1 53 -21 130 -40 156 -76 359 -94 530
-18 168 -17 172 67 213 111 55 244 67 297 27z m1978 -107 c32 -9 51 -51 58
-132 l7 -69 -42 -6 c-63 -8 -179 -68 -240 -123 -30 -27 -56 -44 -58 -38 -2 6
-26 50 -53 98 -28 47 -50 90 -50 95 0 10 186 122 245 147 33 14 78 28 105 33
3 0 15 -2 28 -5z m-558 -214 c31 -47 79 -125 106 -175 26 -49 56 -97 66 -107
16 -16 16 -20 -16 -90 -60 -130 -80 -231 -80 -411 l-1 -157 -80 -31 c-44 -16
-91 -34 -104 -40 -13 -5 -25 -8 -26 -7 -4 4 -42 320 -60 495 -9 83 -13 170 -9
193 5 28 2 51 -9 73 -8 18 -23 93 -32 166 -10 74 -19 141 -22 147 -3 8 25 28
74 53 l78 40 28 -32 c16 -18 55 -70 87 -117z m-4005 -121 c278 -56 525 -193
715 -396 137 -147 260 -350 328 -544 l31 -86 -47 -6 c-51 -6 -251 -73 -573
-190 -445 -162 -653 -204 -1064 -214 -391 -9 -687 26 -1057 124 l-138 37 0 46
c0 64 26 222 50 310 27 98 108 265 166 348 51 71 167 198 195 213 12 6 6 -8
-16 -40 -43 -64 -59 -134 -53 -229 6 -90 34 -176 82 -248 19 -28 36 -62 38
-75 2 -20 10 -25 43 -27 64 -5 100 6 148 48 51 45 61 70 40 99 -18 27 -35 26
-70 -3 -39 -32 -88 -56 -115 -56 -48 0 -98 115 -98 224 0 80 14 116 85 231 25
39 45 79 45 87 0 19 -18 35 -44 39 -15 3 1 18 60 56 206 135 514 241 795 272
119 14 336 4 454 -20z m3128 -576 c3 -302 4 -549 2 -551 -6 -7 -186 -32 -270
-38 l-90 -7 0 399 c0 363 -8 531 -31 661 -6 30 -4 32 38 44 70 19 198 37 274
38 l71 1 6 -547z m1612 487 c46 -22 170 -144 161 -159 -3 -4 -23 -11 -44 -14
-61 -10 -151 -61 -238 -136 -44 -38 -110 -89 -145 -113 -59 -41 -64 -47 -67
-85 -3 -35 1 -44 27 -66 l31 -25 -126 -42 c-69 -23 -128 -40 -130 -37 -8 8 15
159 37 237 50 183 200 397 312 445 48 21 133 19 182 -5z m-2671 -292 c76 -160
196 -386 323 -606 51 -90 93 -165 93 -168 0 -2 -26 -1 -57 2 -50 6 -66 13
-112 52 -67 57 -152 159 -235 282 -121 180 -281 425 -284 435 -2 8 192 135
206 135 2 0 32 -60 66 -132z m1601 -143 c10 -66 30 -187 46 -269 16 -83 27
-151 26 -152 -6 -6 -217 -78 -319 -109 l-108 -33 0 96 c0 97 0 97 55 210 90
186 258 424 275 390 4 -7 15 -67 25 -133z m869 -595 c83 -486 79 -846 -14
-1101 -126 -350 -422 -559 -883 -624 -264 -37 -478 -31 -1174 35 -113 10 -182
36 -203 75 -15 27 -10 296 10 525 15 182 29 453 35 710 l5 225 28 23 c15 12
33 19 42 16 8 -4 53 -18 100 -32 l86 -24 34 -60 c41 -70 72 -98 111 -98 35 0
86 42 94 79 l6 29 222 5 c233 5 334 18 556 72 215 52 570 185 841 314 l65 31
7 -28 c4 -15 18 -92 32 -172z m-3139 166 c28 -7 78 -27 112 -45 65 -32 198
-148 208 -181 4 -13 -10 -43 -43 -92 -130 -193 -297 -382 -410 -468 -76 -57
-191 -120 -218 -120 -11 0 -32 -8 -49 -18 -42 -26 -116 -43 -216 -49 -154 -10
-320 27 -481 108 -43 21 -88 39 -101 39 -13 0 -61 -22 -105 -49 -75 -45 -234
-111 -267 -111 -8 0 -17 5 -20 10 -11 18 -47 11 -52 -11 -6 -21 -10 -21 -112
-17 -118 6 -198 30 -297 89 -57 34 -204 168 -204 185 0 6 25 7 63 2 134 -15
522 -21 657 -9 525 46 899 190 1152 443 48 48 89 84 91 80 2 -4 7 -20 11 -37
10 -41 33 -63 71 -71 37 -7 89 15 99 41 11 29 6 107 -13 203 l-18 92 46 0 c25
0 69 -6 96 -14z m-3397 -252 c28 -6 32 -13 56 -88 32 -99 106 -240 129 -244
14 -3 17 5 17 40 l0 44 126 -43 c117 -40 374 -107 507 -133 39 -8 55 -15 50
-23 -37 -60 -190 -251 -224 -281 -86 -74 -182 -107 -251 -86 -57 16 -90 44
-155 123 -68 85 -103 107 -166 107 -57 0 -102 -18 -169 -66 -68 -48 -93 -57
-113 -38 -20 21 -19 59 7 191 22 111 22 112 2 134 -10 12 -40 32 -66 44 -44
20 -46 23 -33 41 23 30 19 71 -10 90 -23 15 -27 15 -51 -1 -14 -9 -28 -14 -31
-11 -10 10 15 78 43 122 44 68 82 84 200 84 56 0 115 -3 132 -6z m-350 -450
c12 -8 22 -19 22 -24 0 -5 -16 -48 -35 -95 -20 -46 -38 -104 -41 -128 -9 -62
12 -149 41 -177 22 -20 31 -22 82 -16 79 9 173 41 220 75 22 16 50 32 63 36
29 9 29 8 -58 -148 -85 -153 -136 -266 -158 -348 -10 -35 -20 -67 -23 -71 -4
-4 -49 13 -101 39 -125 60 -235 166 -270 258 -28 75 -36 176 -20 246 18 81 83
208 151 299 65 86 71 89 127 54z m1442 -150 c105 -143 222 -235 390 -305 101
-43 188 -48 304 -19 l88 22 87 -86 c102 -101 139 -131 246 -201 154 -101 305
-164 496 -207 91 -20 131 -23 314 -23 188 0 213 2 237 19 30 20 48 68 48 129
0 41 10 49 87 62 l42 7 -14 -53 c-20 -76 -85 -205 -139 -276 -210 -277 -634
-478 -1176 -557 -755 -110 -1563 59 -1809 377 -65 86 -90 155 -91 255 0 45 2
82 5 82 3 0 22 -11 43 -24 167 -105 384 -164 691 -186 223 -17 507 0 1091 64
119 13 125 15 152 45 38 43 38 90 -1 133 l-29 33 -184 -1 c-101 -1 -303 -11
-449 -23 -801 -64 -1127 8 -1372 305 -16 19 -16 24 9 100 15 43 28 80 29 82 1
2 44 -24 95 -57 143 -92 220 -101 350 -39 90 42 235 190 308 313 29 50 56 103
59 119 6 28 7 29 20 10 7 -10 40 -56 73 -100z m2378 -126 c48 -97 56 -123 53
-190 -1 -40 -61 -101 -129 -131 -93 -42 -102 -41 -122 18 -9 28 -38 92 -64
142 -25 51 -46 94 -46 97 0 2 30 22 68 44 37 23 90 59 117 81 28 22 55 40 60
40 6 1 34 -45 63 -101z m-1106 -108 c129 -42 234 -60 348 -60 88 0 217 17 262
35 33 13 148 -250 148 -340 l0 -45 -112 0 c-334 1 -641 96 -924 286 -89 59
-120 89 -106 98 5 3 47 16 93 30 114 34 177 33 291 -4z" />
        <path
            d="M3122 3718 c-32 -32 -5 -77 172 -275 58 -65 112 -70 141 -12 14 26
14 32 0 59 -8 16 -36 46 -61 67 -26 21 -82 68 -125 106 -79 67 -104 78 -127
55z" />
        <path
            d="M2000 3493 c-63 -16 -68 -20 -72 -53 -2 -15 -18 -36 -40 -53 -42 -30
-45 -38 -22 -61 22 -23 36 -20 129 24 92 44 125 72 125 106 0 43 -43 57 -120
37z" />
        <path
            d="M3335 3152 c-37 -9 -54 -49 -37 -86 9 -21 20 -25 76 -31 106 -12 211
-3 235 19 27 24 27 58 0 82 -18 16 -38 19 -133 21 -61 1 -124 -2 -141 -5z" />
    </g>
</svg>